# xmcd
#
# Track frame offsets: 
#        182
#        19040
#        30140
#        45587
#        58720
#        72110
#        84497
#        98685
#        115335
#        129175
#        141160
#        150232
#        162445
#        176842
#        191877
#        207282
#        228665
#
# Disc length: 3266 seconds
#
# Revision: 1
# Processed by: cddbd v1.5.2PL0 Copyright (c) Steve Scherf et al.
# Submitted via: ExactAudioCopyFreeDBPlugin 1.0
#
DISCID=db0cc011
DTITLE=The Riverside Singers - Volume 1-Negro spirituals
DYEAR=1992
DGENRE=Gospel
TTITLE0=Hymn to freedom (Instr.)
TTITLE1=Jubilee
TTITLE2=Dry bones
TTITLE3=Anyhow
TTITLE4=Deep river
TTITLE5=Shadrack
TTITLE6=Swing down sweet chariot
TTITLE7=Hush
TTITLE8=Joshua
TTITLE9=St Paul's
TTITLE10=Rock my soul
TTITLE11=What a morning
TTITLE12=When the Saints
TTITLE13=Amen
TTITLE14=Old man mose
TTITLE15=Sixteen tons
TTITLE16=Freedom
EXTD=
EXTT0=
EXTT1=
EXTT2=
EXTT3=
EXTT4=
EXTT5=
EXTT6=
EXTT7=
EXTT8=
EXTT9=
EXTT10=
EXTT11=
EXTT12=
EXTT13=
EXTT14=
EXTT15=
EXTT16=
PLAYORDER=
